<?xml version="1.0" standalone="no"?>
<!DOCTYPE svg PUBLIC "-//W3C//DTD SVG 20010904//EN"
 "http://www.w3.org/TR/2001/REC-SVG-20010904/DTD/svg10.dtd">
<svg version="1.0" xmlns="http://www.w3.org/2000/svg"
 width="500.000000pt" height="500.000000pt" viewBox="0 0 500.000000 500.000000"
 preserveAspectRatio="xMidYMid meet">
<metadata>
Created by potrace 1.11, written by Peter Selinger 2001-2013
</metadata>
<g transform="translate(0.000000,500.000000) scale(0.100000,-0.100000)"
fill="#000000" stroke="none">
<path d="M497 3040 c-186 -59 -296 -228 -297 -457 0 -150 44 -275 127 -358 86
-86 181 -125 309 -125 256 0 434 197 434 480 0 230 -119 407 -309 464 -73 21
-191 20 -264 -4z m202 -40 c73 -14 114 -35 177 -93 131 -120 170 -349 90 -531
-30 -68 -109 -154 -169 -184 -167 -83 -370 -25 -466 133 -158 261 -34 622 231
674 60 12 78 12 137 1z"/>
<path d="M1947 3050 c-83 -21 -156 -77 -184 -140 -20 -46 -20 -148 0 -186 39
-74 106 -111 272 -149 271 -61 328 -100 328 -219 0 -85 -43 -141 -139 -182
-59 -26 -201 -23 -279 6 -101 38 -165 123 -165 219 0 28 -3 31 -30 31 -28 0
-30 -3 -30 -35 0 -143 105 -257 265 -286 77 -14 219 -6 270 15 134 56 199 171
165 296 -28 104 -105 151 -324 200 -165 36 -210 55 -253 104 -28 31 -33 44
-33 88 0 134 132 216 305 188 117 -19 192 -75 216 -162 6 -24 13 -49 15 -56 2
-8 15 -12 31 -10 31 3 32 15 11 98 -16 60 -95 140 -163 164 -58 21 -221 30
-278 16z"/>
<path d="M2737 2786 c-168 -47 -255 -243 -202 -451 38 -145 139 -226 283 -226
122 -1 206 46 254 141 35 70 37 110 5 110 -18 0 -26 -10 -41 -52 -66 -187
-324 -206 -418 -32 -75 138 -42 347 65 425 55 40 101 52 168 46 101 -9 164
-61 193 -159 6 -19 41 -25 50 -9 3 5 -1 31 -9 57 -17 57 -70 115 -129 139 -53
23 -160 28 -219 11z"/>
<path d="M3400 2787 c-135 -38 -207 -141 -217 -308 -10 -162 54 -290 172 -345
73 -35 186 -34 260 2 128 60 196 224 165 394 -20 110 -81 199 -164 240 -54 26
-156 34 -216 17z m172 -56 c94 -40 158 -152 158 -275 0 -176 -103 -300 -249
-299 -142 2 -245 125 -244 293 0 83 15 136 56 196 62 92 180 128 279 85z"/>
<path d="M4412 2781 c-77 -26 -122 -67 -162 -147 -34 -67 -35 -72 -35 -189 0
-111 2 -124 28 -177 33 -67 99 -130 155 -146 55 -17 171 -15 223 3 60 22 125
87 149 153 26 68 25 72 -9 72 -23 0 -30 -5 -34 -27 -11 -52 -65 -120 -114
-144 -51 -25 -146 -30 -194 -11 -76 30 -134 116 -148 218 l-8 54 266 2 266 3
-3 55 c-4 96 -30 159 -88 217 -79 80 -181 102 -292 64z m183 -50 c71 -32 124
-108 140 -200 l7 -41 -236 0 -236 0 0 23 c0 81 85 200 160 224 53 17 121 15
165 -6z"/>
<path d="M4115 2776 c-64 -20 -101 -43 -134 -83 l-31 -38 0 63 c0 59 -1 62
-25 62 l-25 0 0 -330 0 -330 24 0 24 0 4 213 c3 190 5 217 24 257 39 85 116
140 195 140 37 0 39 2 39 30 0 26 -3 30 -27 29 -16 0 -46 -6 -68 -13z"/>
<path d="M1100 2772 c0 -5 58 -152 129 -328 l128 -319 34 -3 35 -3 122 324
c67 179 122 328 122 331 0 3 -13 6 -29 6 -28 0 -30 -4 -101 -197 -41 -109 -90
-243 -110 -297 l-37 -99 -117 297 c-117 294 -118 296 -147 296 -16 0 -29 -4
-29 -8z"/>
</g>
</svg>
